<?xml version="1.0" standalone="no"?>
<!DOCTYPE svg PUBLIC "-//W3C//DTD SVG 20010904//EN"
 "http://www.w3.org/TR/2001/REC-SVG-20010904/DTD/svg10.dtd">
<svg version="1.0" xmlns="http://www.w3.org/2000/svg"
 width="200.000000pt" height="200.000000pt" viewBox="0 0 200.000000 200.000000"
 preserveAspectRatio="xMidYMid meet">
<metadata>
Created by potrace 1.11, written by Peter Selinger 2001-2013
</metadata>
<g transform="translate(0.000000,200.000000) scale(0.100000,-0.100000)"
fill="#000000" stroke="none">
<path d="M0 1776 l0 -224 31 -7 c25 -6 34 -3 45 14 15 21 49 27 70 13 6 -4 14
-20 18 -36 7 -27 10 -28 46 -23 51 7 75 -10 66 -47 -5 -19 -18 -32 -43 -42
-37 -16 -51 -13 -95 18 -15 10 -20 9 -32 -7 -23 -30 -19 -42 15 -49 17 -3 51
-25 77 -51 25 -25 53 -45 63 -45 10 0 29 -14 42 -31 17 -22 36 -34 63 -38 31
-5 42 -13 58 -44 24 -46 14 -70 -30 -75 -16 -2 -37 -11 -46 -19 -13 -11 -29
-13 -66 -8 -31 4 -66 2 -91 -6 -60 -18 -71 -4 -47 63 l18 52 -26 19 c-14 10
-26 25 -26 32 0 18 -7 22 -62 30 l-48 7 0 -235 c0 -183 3 -237 13 -246 22 -18
42 -90 29 -103 -8 -8 -15 -8 -27 2 -13 11 -15 -23 -15 -339 l0 -351 22 0 c24
0 158 73 230 125 32 24 46 40 42 50 -8 20 39 92 66 100 36 11 40 43 12 93 -28
50 -45 60 -69 41 -15 -13 -16 -11 -9 11 41 139 41 146 -4 170 -25 14 -107 -15
-159 -55 -25 -20 -52 -34 -61 -33 -19 4 -25 43 -8 57 73 60 130 99 168 112 61
21 94 68 85 125 -4 31 -2 44 12 56 41 37 72 23 133 -58 39 -52 42 -60 33 -85
-12 -31 -5 -41 37 -54 47 -14 54 -61 15 -97 l-25 -23 21 -55 c20 -54 21 -55
59 -55 21 0 42 -4 46 -8 18 -17 -91 -105 -121 -98 -5 2 -7 -1 -3 -5 5 -4 -25
-28 -65 -54 -39 -26 -88 -63 -107 -81 -19 -19 -51 -45 -70 -58 -19 -14 -43
-32 -52 -40 -32 -30 -45 -39 -84 -60 l-39 -20 412 -1 412 0 -45 98 c-25 53
-72 151 -105 217 -32 66 -59 131 -59 143 0 13 10 46 21 73 17 39 20 60 15 101
-4 28 -12 60 -17 70 -9 16 -13 45 -18 114 -1 15 -10 23 -31 27 -20 4 -38 20
-57 48 -24 36 -28 54 -34 148 -7 119 -1 136 43 127 25 -5 27 -3 19 12 -24 46
-17 255 10 288 5 6 6 13 3 16 -8 9 17 96 32 109 8 6 14 20 14 31 0 11 20 39
44 63 34 32 63 48 124 68 45 14 89 24 99 22 48 -10 131 -12 144 -5 11 7 7 17
-21 45 l-35 36 45 39 c25 22 48 40 53 40 19 0 4 38 -22 53 -27 16 -78 17 -590
17 l-561 0 0 -224z m350 -786 c0 -5 -5 -10 -11 -10 -5 0 -7 5 -4 10 3 6 8 10
11 10 2 0 4 -4 4 -10z m-155 -52 c54 -12 61 -22 41 -53 -16 -24 -21 -25 -64
-19 -69 10 -92 21 -92 43 0 24 39 54 60 45 8 -3 33 -11 55 -16z"/>
<path d="M1708 1965 c3 -29 1 -35 -14 -36 -36 -2 -59 3 -75 17 -18 16 -40 18
-54 5 -18 -15 -93 -22 -98 -8 -3 9 -7 9 -17 0 -18 -17 -4 -31 38 -38 33 -6 72
-23 179 -78 31 -16 34 -22 28 -45 -7 -31 -7 -42 1 -99 5 -33 2 -45 -15 -62
-26 -26 -42 -26 -111 -2 -59 21 -81 16 -104 -23 -12 -19 2 -34 74 -79 22 -15
40 -37 50 -63 8 -23 21 -49 29 -58 11 -13 11 -22 1 -46 -12 -28 -15 -30 -66
-28 -34 2 -55 7 -59 16 -4 11 -8 11 -20 -2 -16 -16 -19 -101 -6 -191 l7 -50
10 34 c12 41 38 61 56 43 9 -9 9 -15 0 -24 -14 -14 -17 -52 -3 -44 5 3 11 -7
14 -23 5 -25 13 -31 54 -41 77 -19 120 -23 127 -11 4 6 27 11 51 11 36 0 47
-5 69 -31 28 -33 33 -33 109 -7 l37 13 0 206 0 205 -32 24 c-18 13 -48 27 -68
30 l-35 6 3 71 c3 64 1 73 -18 83 -11 6 -24 9 -29 6 -11 -7 -39 16 -41 34 -8
56 -1 69 43 81 53 14 67 25 67 55 0 18 5 23 23 22 12 -1 37 4 55 11 32 13 32
13 32 82 l0 69 -55 0 c-52 0 -55 -1 -55 -24 0 -14 -5 -28 -11 -31 -13 -9 -93
21 -109 41 -7 7 -24 14 -39 14 -25 0 -27 -3 -23 -35z"/>
<path d="M910 1710 c0 -10 -9 -22 -20 -25 -13 -4 -20 -15 -20 -30 0 -13 -4
-27 -10 -30 -5 -3 -10 -13 -10 -21 0 -13 13 -15 73 -13 39 2 78 0 85 -4 8 -6
12 -2 12 10 0 16 1 16 14 -2 15 -23 17 -57 3 -48 -5 3 -26 7 -47 9 -27 2 -37
-1 -37 -12 0 -8 10 -16 21 -18 12 -2 45 -9 74 -15 43 -9 58 -8 82 4 16 8 38
15 50 15 11 0 29 9 40 20 11 11 20 17 20 14 0 -3 9 2 21 10 19 13 26 12 65 -4
24 -11 58 -35 75 -55 25 -28 34 -33 45 -24 20 16 17 43 -5 63 -11 10 -17 24
-14 32 3 7 -2 21 -11 30 -9 8 -13 20 -10 26 4 7 2 8 -4 4 -7 -4 -27 4 -44 17
-18 14 -44 28 -58 32 -24 7 -24 7 -7 -12 9 -11 17 -24 17 -29 0 -5 9 -15 20
-22 11 -7 20 -17 20 -22 0 -13 -37 -13 -45 1 -4 5 -12 8 -18 6 -7 -2 -27 5
-45 15 -40 22 -43 22 -35 1 6 -16 5 -16 -10 -4 -16 12 -17 12 -11 -5 8 -23 -1
-14 -44 42 -18 23 -41 44 -52 47 -13 3 -18 1 -13 -6 4 -7 -1 -6 -10 2 -9 7
-26 11 -37 8 -11 -3 -23 -1 -26 4 -3 5 -14 4 -26 -2 -11 -6 -23 -7 -27 -3 -12
17 -41 12 -41 -6z m220 -67 c-1 -10 -39 39 -40 51 0 5 9 -3 20 -17 11 -14 20
-29 20 -34z m-61 -43 c1 -13 0 -13 -9 0 -5 8 -9 24 -9 35 l0 20 9 -20 c5 -11
9 -27 9 -35z m24 10 c3 -11 1 -18 -4 -14 -5 3 -9 12 -9 20 0 20 7 17 13 -6z"/>
<path d="M1225 1690 c3 -5 11 -10 16 -10 6 0 7 5 4 10 -3 6 -11 10 -16 10 -6
0 -7 -4 -4 -10z"/>
<path d="M893 1170 c-34 -20 -45 -37 -18 -27 8 4 17 2 20 -3 4 -6 -2 -10 -12
-10 -22 0 -83 -36 -83 -49 0 -5 20 -6 44 -4 25 3 61 2 81 -1 30 -6 34 -10 25
-22 -10 -11 -8 -14 9 -14 31 0 61 18 61 35 0 8 6 15 14 15 21 0 26 38 8 61
-14 17 -72 38 -107 39 -5 0 -25 -9 -42 -20z"/>
<path d="M1178 1168 c-43 -25 -43 -26 -24 -71 11 -27 23 -36 66 -50 69 -22
106 -21 130 3 11 11 26 20 33 20 27 1 49 28 42 52 -9 29 -23 38 -57 38 -14 0
-28 5 -30 12 -2 6 -30 13 -64 15 -47 3 -66 -1 -96 -19z m125 -115 c-7 -2 -19
-2 -25 0 -7 3 -2 5 12 5 14 0 19 -2 13 -5z"/>
<path d="M610 1120 c0 -5 5 -10 10 -10 6 0 10 5 10 10 0 6 -4 10 -10 10 -5 0
-10 -4 -10 -10z"/>
<path d="M1480 1036 c0 -26 24 -51 40 -41 16 10 12 52 -6 59 -27 10 -34 7 -34
-18z"/>
<path d="M640 1030 c-16 -16 -18 -24 -10 -41 11 -20 12 -20 31 5 33 42 16 73
-21 36z"/>
<path d="M1457 907 c-9 -58 -2 -92 10 -49 3 12 12 22 19 22 8 0 14 5 14 10 0
6 -6 10 -14 10 -9 0 -16 12 -18 33 -3 25 -5 20 -11 -26z"/>
<path d="M1972 933 c-35 -52 -61 -137 -77 -251 -20 -150 -19 -191 4 -216 23
-25 49 -147 41 -196 -6 -40 -33 -47 -63 -17 -15 15 -17 28 -12 65 4 33 2 53
-8 66 -12 17 -12 27 0 74 8 30 12 56 9 59 -2 3 -48 6 -101 8 -103 4 -125 13
-125 52 0 63 -48 83 -90 38 -36 -38 -120 -31 -104 8 4 10 0 19 -9 22 -12 5
-12 14 -1 63 8 31 14 72 14 90 l0 33 -25 -18 c-13 -10 -25 -26 -25 -36 0 -10
-4 -15 -10 -12 -12 7 -66 -46 -75 -74 -3 -12 -10 -21 -16 -21 -5 0 -14 -20
-20 -45 -6 -25 -15 -42 -20 -39 -5 3 -9 0 -9 -7 0 -7 -3 -10 -6 -6 -7 6 -44
-29 -44 -43 0 -10 -41 -19 -113 -24 -35 -3 -50 0 -54 10 -3 9 -13 12 -23 9
-10 -3 -21 -1 -25 5 -3 6 -10 8 -14 6 -12 -8 -28 8 -38 39 -5 17 -13 28 -18
25 -4 -3 -11 5 -16 18 -5 12 -13 22 -19 22 -6 0 -8 -6 -4 -12 4 -8 3 -10 -2
-5 -5 5 -9 12 -9 15 -3 30 -18 49 -35 45 -11 -3 -20 -10 -20 -17 -1 -6 -10 0
-20 13 -19 22 -20 22 -20 3 0 -11 6 -32 14 -46 16 -32 123 -146 137 -146 5 0
9 -7 9 -15 0 -8 5 -15 10 -15 6 0 24 -10 39 -21 16 -12 34 -19 39 -15 5 3 15
-1 22 -9 7 -8 9 -15 4 -15 -23 0 37 -29 62 -30 61 -2 74 -5 74 -17 0 -6 -4
-15 -10 -18 -20 -13 -9 -30 20 -32 17 -1 28 2 25 7 -3 5 3 11 13 14 10 3 18
14 19 23 1 15 8 63 12 84 0 3 9 15 19 27 33 40 47 58 94 120 26 34 49 58 52
53 3 -5 -5 -19 -18 -32 -34 -35 -42 -97 -18 -140 16 -27 42 -160 42 -214 0
-15 -144 -50 -199 -47 -24 1 -54 9 -67 17 -13 8 -46 24 -75 35 l-51 20 -49
-41 -50 -41 3 -92 3 -91 62 -3 c61 -3 130 20 148 48 3 5 28 10 54 10 39 0 52
-5 76 -30 27 -28 33 -30 105 -30 70 0 78 2 87 23 l10 22 7 -22 7 -23 250 0
249 0 0 480 c0 264 -2 480 -4 480 -3 0 -13 -12 -24 -27z m-444 -523 c27 -25
28 -57 2 -90 -13 -18 -16 -28 -8 -37 6 -7 7 -13 2 -13 -12 1 -61 39 -51 40 5
0 1 7 -7 16 -31 30 -11 104 28 104 7 0 22 -9 34 -20z m365 -266 c5 -31 -8 -40
-29 -20 -18 19 -10 58 10 50 8 -3 16 -16 19 -30z"/>
<path d="M1495 310 c-3 -5 -1 -10 4 -10 6 0 11 5 11 10 0 6 -2 10 -4 10 -3 0
-8 -4 -11 -10z"/>
<path d="M1210 941 c0 -5 5 -13 10 -16 6 -3 10 -2 10 4 0 5 -4 13 -10 16 -5 3
-10 2 -10 -4z"/>
<path d="M1127 874 c-27 -10 -44 -11 -57 -4 -27 15 -50 12 -50 -5 0 -13 13
-20 24 -12 8 5 45 -36 40 -44 -7 -12 20 -11 53 2 65 26 74 33 71 53 -4 26 -30
29 -81 10z"/>
<path d="M910 768 c0 -17 36 -22 202 -24 151 -3 178 -1 178 11 0 8 -3 15 -7
15 -5 0 -90 1 -191 3 -100 1 -182 -1 -182 -5z"/>
<path d="M1367 403 c-3 -10 -8 -31 -11 -48 -6 -28 -5 -29 9 -11 8 11 15 32 15
48 0 32 -6 37 -13 11z"/>
<path d="M1057 309 c7 -7 15 -10 18 -7 3 3 -2 9 -12 12 -14 6 -15 5 -6 -5z"/>
</g>
</svg>
